<?xml version="1.0" encoding="UTF-8" standalone="no"?>
<svg
   xmlns:dc="http://purl.org/dc/elements/1.1/"
   xmlns:cc="http://creativecommons.org/ns#"
   xmlns:rdf="http://www.w3.org/1999/02/22-rdf-syntax-ns#"
   xmlns:svg="http://www.w3.org/2000/svg"
   xmlns="http://www.w3.org/2000/svg"
   xmlns:sodipodi="http://sodipodi.sourceforge.net/DTD/sodipodi-0.dtd"
   xmlns:inkscape="http://www.inkscape.org/namespaces/inkscape"
   enable-background="new 0 0 128 128"
   height="128px"
   id="Layer_1"
   version="1.1"
   viewBox="0 0 128 128"
   width="128px"
   xml:space="preserve"
   inkscape:version="0.91 r13725"
   sodipodi:docname="1462721454_Magnifier.svg"><metadata
     id="metadata15"><rdf:RDF><cc:Work
         rdf:about=""><dc:format>image/svg+xml</dc:format><dc:type
           rdf:resource="http://purl.org/dc/dcmitype/StillImage" /></cc:Work></rdf:RDF></metadata><defs
     id="defs13" /><sodipodi:namedview
     pagecolor="#ffffff"
     bordercolor="#666666"
     borderopacity="1"
     objecttolerance="10"
     gridtolerance="10"
     guidetolerance="10"
     inkscape:pageopacity="0"
     inkscape:pageshadow="2"
     inkscape:window-width="751"
     inkscape:window-height="480"
     id="namedview11"
     showgrid="false"
     inkscape:zoom="1.84375"
     inkscape:cx="64"
     inkscape:cy="64"
     inkscape:window-x="0"
     inkscape:window-y="0"
     inkscape:window-maximized="0"
     inkscape:current-layer="Layer_1" /><g
     id="g3"
     transform="matrix(0.77542373,0,0,0.77542373,14,14)"
     style="stroke:none;stroke-opacity:1;fill:#87b7d1;fill-opacity:1"><g
       id="g5"
       style="stroke:none;stroke-opacity:1;fill:#87b7d1;fill-opacity:1"><path
         d="M 123.316,100.688 98.273,75.648 C 101.91,68.547 104,60.523 104,52 104,23.273 80.719,0 52,0 23.285,0 0,23.273 0,52 c 0,28.727 23.285,52 52,52 8.523,0 16.547,-2.094 23.649,-5.727 l 25.039,25.039 c 3.125,3.126 7.218,4.688 11.312,4.688 4.094,0 8.188,-1.563 11.316,-4.688 6.247,-6.242 6.247,-16.374 0,-22.624 z m -5.656,16.968 c -1.512,1.508 -3.523,2.344 -5.66,2.344 -2.137,0 -4.148,-0.828 -5.656,-2.344 L 77.188,88.5 72.004,91.148 C 65.715,94.367 58.984,96 52,96 27.738,96 8,76.266 8,52 8,27.734 27.738,8 52,8 c 24.262,0 44,19.734 44,44 0,6.992 -1.633,13.719 -4.848,20 l -2.656,5.188 4.121,4.117 25.039,25.039 c 1.512,1.508 2.344,3.523 2.344,5.656 0,2.141 -0.828,4.148 -2.34,5.656 z"
         id="path7"
         inkscape:connector-curvature="0"
         style="fill:#87b7d1;stroke:none;stroke-opacity:1;fill-opacity:1" /></g></g><path
     d="m 54.322034,32.610169 c 11.970991,0 21.711864,9.741648 21.711864,21.711865 0,11.970216 -9.740873,21.711864 -21.711864,21.711864 -11.970992,0 -21.711865,-9.741648 -21.711865,-21.711864 0,-11.970217 9.740873,-21.711865 21.711865,-21.711865 m 0,-6.203389 c -15.41775,0 -27.915254,12.497504 -27.915254,27.915254 0,15.411547 12.497504,27.915254 27.915254,27.915254 15.41775,0 27.915254,-12.503707 27.915254,-27.915254 0,-15.41775 -12.497504,-27.915254 -27.915254,-27.915254 l 0,0 z"
     id="path9"
     inkscape:connector-curvature="0"
     style="fill:#03a9f4" /></svg>