<?xml version="1.0" encoding="UTF-8" standalone="no"?>
<svg
   xmlns:dc="http://purl.org/dc/elements/1.1/"
   xmlns:cc="http://creativecommons.org/ns#"
   xmlns:rdf="http://www.w3.org/1999/02/22-rdf-syntax-ns#"
   xmlns:svg="http://www.w3.org/2000/svg"
   xmlns="http://www.w3.org/2000/svg"
   xmlns:sodipodi="http://sodipodi.sourceforge.net/DTD/sodipodi-0.dtd"
   xmlns:inkscape="http://www.inkscape.org/namespaces/inkscape"
   enable-background="new 0 0 128 128"
   height="128px"
   id="Layer_1"
   version="1.1"
   viewBox="0 0 128 128"
   width="128px"
   xml:space="preserve"
   inkscape:version="0.91 r13725"
   sodipodi:docname="1462721444_Exit.svg"><metadata
     id="metadata17"><rdf:RDF><cc:Work
         rdf:about=""><dc:format>image/svg+xml</dc:format><dc:type
           rdf:resource="http://purl.org/dc/dcmitype/StillImage" /></cc:Work></rdf:RDF></metadata><defs
     id="defs15" /><sodipodi:namedview
     pagecolor="#ffffff"
     bordercolor="#666666"
     borderopacity="1"
     objecttolerance="10"
     gridtolerance="10"
     guidetolerance="10"
     inkscape:pageopacity="0"
     inkscape:pageshadow="2"
     inkscape:window-width="751"
     inkscape:window-height="480"
     id="namedview13"
     showgrid="false"
     inkscape:zoom="1.84375"
     inkscape:cx="54.761275"
     inkscape:cy="64"
     inkscape:window-x="0"
     inkscape:window-y="0"
     inkscape:window-maximized="0"
     inkscape:current-layer="Layer_1" /><path
     d="m 55.661017,79.898305 c -1.439839,0 -2.879677,-0.549348 -3.978373,-1.648746 -2.198093,-2.198094 -2.198093,-5.759356 0,-7.957448 l 1.648745,-1.648044 -20.178846,0 c -3.11039,0 -5.627119,-2.519542 -5.627119,-5.627118 0,-3.107576 2.516729,-5.627118 5.627119,-5.627118 l 20.178846,0 -1.648745,-1.648747 c -2.198093,-2.198092 -2.198093,-5.759355 0,-7.957448 1.098696,-1.098695 2.538534,-1.648043 3.978373,-1.648043 1.439839,0 2.879678,0.549348 3.978372,1.648746 l 11.254238,11.254237 c 2.198094,2.198093 2.198094,5.759357 0,7.957449 L 59.639389,78.250262 c -1.098694,1.098695 -2.538533,1.648043 -3.978372,1.648043 m 0,5.627119 c 3.005585,0 5.830399,-1.170441 7.957449,-3.297491 L 74.872703,70.973695 c 2.126348,-2.126347 3.296788,-4.95116 3.296788,-7.956746 0,-3.005585 -1.17044,-5.830398 -3.297491,-7.957449 L 63.617762,43.805262 c -2.126346,-2.126346 -4.95116,-3.296787 -7.956745,-3.296787 -3.005585,0 -5.830398,1.170441 -7.95745,3.29749 -2.192465,2.192468 -3.291864,5.074959 -3.291864,7.957451 l -11.25916,0 c -6.203899,-7.04e-4 -11.254238,5.046822 -11.254238,11.253533 0,6.203899 5.050339,11.254237 11.254238,11.254237 l 11.259864,0 c 0,2.882492 1.099398,5.764279 3.291863,7.95745 2.126349,2.126347 4.951162,3.296788 7.956747,3.296788 l 0,0 z"
     id="path9"
     style="fill:#c34a4a;fill-opacity:1"
     inkscape:connector-curvature="0" /><path
     d="m 95.050846,34.881356 0,56.271187 -5.627115,0 0,-56.271187 5.627115,0 m 5.627114,-5.627118 -16.88135,0 0,67.525416 16.88135,0 0,-67.525416 0,0 z"
     id="path11"
     style="fill:#e1a5a5;fill-opacity:1"
     inkscape:connector-curvature="0" /></svg>