<?xml version="1.0" encoding="UTF-8" standalone="no"?>
<svg
   xmlns:dc="http://purl.org/dc/elements/1.1/"
   xmlns:cc="http://creativecommons.org/ns#"
   xmlns:rdf="http://www.w3.org/1999/02/22-rdf-syntax-ns#"
   xmlns:svg="http://www.w3.org/2000/svg"
   xmlns="http://www.w3.org/2000/svg"
   xmlns:sodipodi="http://sodipodi.sourceforge.net/DTD/sodipodi-0.dtd"
   xmlns:inkscape="http://www.inkscape.org/namespaces/inkscape"
   enable-background="new 0 0 128 128"
   height="128px"
   id="Layer_1"
   version="1.1"
   viewBox="0 0 128 128"
   width="128px"
   xml:space="preserve"
   inkscape:version="0.91 r13725"
   sodipodi:docname="1462721463_Cancel.svg"><metadata
     id="metadata19"><rdf:RDF><cc:Work
         rdf:about=""><dc:format>image/svg+xml</dc:format><dc:type
           rdf:resource="http://purl.org/dc/dcmitype/StillImage" /></cc:Work></rdf:RDF></metadata><defs
     id="defs17" /><sodipodi:namedview
     pagecolor="#ffffff"
     bordercolor="#666666"
     borderopacity="1"
     objecttolerance="10"
     gridtolerance="10"
     guidetolerance="10"
     inkscape:pageopacity="0"
     inkscape:pageshadow="2"
     inkscape:window-width="751"
     inkscape:window-height="480"
     id="namedview15"
     showgrid="false"
     inkscape:zoom="1.84375"
     inkscape:cx="64"
     inkscape:cy="64"
     inkscape:window-x="0"
     inkscape:window-y="0"
     inkscape:window-maximized="0"
     inkscape:current-layer="Layer_1" /><g
     id="g9"><g
       id="g11"><path
         d="M75.313,64l16.969-16.969c3.125-3.125,3.125-8.195,0-11.313c-3.117-3.125-8.188-3.125-11.313,0L64,52.688    L47.031,35.719c-3.125-3.125-8.195-3.125-11.313,0c-3.125,3.117-3.125,8.188,0,11.313L52.688,64L35.719,80.969    c-3.125,3.125-3.125,8.195,0,11.313c3.117,3.125,8.188,3.125,11.313,0L64,75.313l16.969,16.969c3.125,3.125,8.195,3.125,11.313,0    c3.125-3.117,3.125-8.188,0-11.313L75.313,64z"
         fill="#F44336"
         id="path13" /></g></g></svg>