<?xml version="1.0" encoding="UTF-8" standalone="no"?>
<svg
   xmlns:dc="http://purl.org/dc/elements/1.1/"
   xmlns:cc="http://creativecommons.org/ns#"
   xmlns:rdf="http://www.w3.org/1999/02/22-rdf-syntax-ns#"
   xmlns:svg="http://www.w3.org/2000/svg"
   xmlns="http://www.w3.org/2000/svg"
   xmlns:sodipodi="http://sodipodi.sourceforge.net/DTD/sodipodi-0.dtd"
   xmlns:inkscape="http://www.inkscape.org/namespaces/inkscape"
   enable-background="new 0 0 128 128"
   height="128px"
   id="Layer_1"
   version="1.1"
   viewBox="0 0 128 128"
   width="128px"
   xml:space="preserve"
   inkscape:version="0.91 r13725"
   sodipodi:docname="1462721460_EditDocument.svg"><metadata
     id="metadata23"><rdf:RDF><cc:Work
         rdf:about=""><dc:format>image/svg+xml</dc:format><dc:type
           rdf:resource="http://purl.org/dc/dcmitype/StillImage" /></cc:Work></rdf:RDF></metadata><defs
     id="defs21" /><sodipodi:namedview
     pagecolor="#ffffff"
     bordercolor="#666666"
     borderopacity="1"
     objecttolerance="10"
     gridtolerance="10"
     guidetolerance="10"
     inkscape:pageopacity="0"
     inkscape:pageshadow="2"
     inkscape:window-width="751"
     inkscape:window-height="480"
     id="namedview19"
     showgrid="false"
     inkscape:zoom="1.84375"
     inkscape:cx="57.003613"
     inkscape:cy="64.195798"
     inkscape:window-x="559"
     inkscape:window-y="67"
     inkscape:window-maximized="0"
     inkscape:current-layer="Layer_1" /><g
     id="g3"
     transform="matrix(0.76694872,0,0,0.76694872,17,16)"><g
       id="g5"><path
         d="M 96,0 16,0 C 7.164,0 0,7.164 0,16 l 0,96 c 0,8.836 7.164,16 16,16 l 44,0 0,-8 -44,0 c -4.406,0 -8,-3.586 -8,-8 L 8,16 c 0,-4.414 3.594,-8 8,-8 l 80,0 c 4.414,0 8,3.586 8,8 l 0,47.031 8,-8 L 112,16 C 112,7.164 104.836,0 96,0 Z"
         id="path7"
         inkscape:connector-curvature="0"
         style="clip-rule:evenodd;fill:#546e7a;fill-rule:evenodd" /></g></g><path
     d="m 113.37171,71.220309 -4.33785,-4.337863 c -1.19875,-1.198741 -2.76792,-1.797728 -4.33789,-1.797728 -1.56992,0 -3.13988,0.598987 -4.33784,1.797728 L 74.018036,93.222533 c -1.198741,1.198744 -4.863989,5.832649 -4.865523,7.402597 l -3.067795,13.5443 13.541246,-3.06779 c 0,0 6.207683,-3.66678 7.405657,-4.86552 L 113.37171,79.896032 c 2.39672,-2.395947 2.39672,-6.282077 0,-8.675723 z M 84.868827,104.06104 c -0.347428,0.32981 -1.549236,1.14123 -3.017177,2.07614 l -7.947891,-7.947883 c 0.815268,-1.117448 1.722567,-2.241027 2.283207,-2.797835 l 19.832525,-19.832525 8.676489,8.676491 -19.827153,19.825612 z"
     id="path9"
     inkscape:connector-curvature="0"
     style="fill:#03a9f4" /><path
     d="m 84.491488,40.542359 -49.084719,0 0,-6.135589 49.084719,0 0,6.135589 z"
     id="path11"
     inkscape:connector-curvature="0"
     style="fill:#b0bec5" /><path
     d="m 84.491488,52.813539 -49.084719,0 0,-6.13559 49.084719,0 0,6.13559 z"
     id="path13"
     inkscape:connector-curvature="0"
     style="fill:#b0bec5" /><path
     d="m 84.491488,65.084718 -49.084719,0 0,-6.135589 49.084719,0 0,6.135589 z"
     id="path15"
     inkscape:connector-curvature="0"
     style="fill:#b0bec5" /><path
     d="m 59.949128,77.355898 -24.542359,0 0,-6.135589 24.542359,0 0,6.135589 z"
     id="path17"
     inkscape:connector-curvature="0"
     style="fill:#b0bec5" /></svg>