<?xml version="1.0" encoding="UTF-8" standalone="no"?>
<!-- Created with Inkscape (http://www.inkscape.org/) -->

<svg
   xmlns:dc="http://purl.org/dc/elements/1.1/"
   xmlns:cc="http://creativecommons.org/ns#"
   xmlns:rdf="http://www.w3.org/1999/02/22-rdf-syntax-ns#"
   xmlns:svg="http://www.w3.org/2000/svg"
   xmlns="http://www.w3.org/2000/svg"
   xmlns:sodipodi="http://sodipodi.sourceforge.net/DTD/sodipodi-0.dtd"
   xmlns:inkscape="http://www.inkscape.org/namespaces/inkscape"
   width="48"
   height="48"
   id="svg3344"
   version="1.1"
   inkscape:version="0.91 r13725"
   viewBox="0 0 48 48"
   sodipodi:docname="edit.svg">
  <defs
     id="defs3346" />
  <sodipodi:namedview
     id="base"
     pagecolor="#ffffff"
     bordercolor="#666666"
     borderopacity="1.0"
     inkscape:pageopacity="0.0"
     inkscape:pageshadow="2"
     inkscape:zoom="14"
     inkscape:cx="27.624929"
     inkscape:cy="36.471547"
     inkscape:current-layer="layer1-9"
     showgrid="true"
     inkscape:grid-bbox="true"
     inkscape:document-units="px"
     inkscape:window-width="689"
     inkscape:window-height="551"
     inkscape:window-x="6"
     inkscape:window-y="95"
     inkscape:window-maximized="0" />
  <metadata
     id="metadata3349">
    <rdf:RDF>
      <cc:Work
         rdf:about="">
        <dc:format>image/svg+xml</dc:format>
        <dc:type
           rdf:resource="http://purl.org/dc/dcmitype/StillImage" />
        <dc:title></dc:title>
      </cc:Work>
    </rdf:RDF>
  </metadata>
  <g
     id="layer1"
     inkscape:label="Layer 1"
     inkscape:groupmode="layer">
    <g
       inkscape:label="Layer 1"
       id="layer1-0"
       transform="matrix(0.71203654,-0.70214241,0.70214241,0.71203654,-7.0912801,19.871723)">
      <g
         transform="matrix(1.2996747,0,0,1.2996747,3.0814786,2.6414382)"
         id="layer1-94"
         inkscape:label="Layer 1">
        <g
           inkscape:label="Layer 1"
           id="layer1-9"
           transform="translate(-25.174456,-6.4207751)">
          <rect
             transform="matrix(0,1,1,0,0,0)"
             ry="3.7438059"
             rx="2.7507672"
             y="21.373205"
             x="17.963623"
             height="28.86051"
             width="5.5015345"
             id="rect2993-7-4-8"
             style="fill:#cad054;fill-opacity:1;stroke:none" />
          <rect
             transform="matrix(0.01861268,0.99982677,0.99999674,-0.00255191,0,0)"
             ry="0.85794097"
             rx="2.425586"
             y="46.336655"
             x="18.107574"
             height="4.0262961"
             width="5.5012183"
             id="rect2993-7-4-8-4-6"
             style="fill:#ed966d;fill-opacity:1;stroke:none" />
          <rect
             transform="matrix(0.01490417,0.99988893,0.99997449,0.00714227,0,0)"
             ry="0"
             rx="0"
             y="41.105354"
             x="17.574835"
             height="6.2453442"
             width="5.6173954"
             id="rect2993-7-4-8-4"
             style="fill:#c6c7c3;fill-opacity:1;stroke:none" />
          <path
             style="fill:#ded08b;fill-opacity:1;fill-rule:evenodd;stroke:none;stroke-width:0.76942331px;stroke-linecap:butt;stroke-linejoin:round;stroke-opacity:1"
             d="m 23.750832,18.128315 0.19551,5.248708 -1.217791,-0.53108 -3.602146,-2.098812 3.376103,-2.041622 z"
             id="path4225"
             inkscape:connector-curvature="0"
             sodipodi:nodetypes="cccccc" />
          <path
             style="fill:none;fill-rule:evenodd;stroke:#3d3d3d;stroke-width:0.76942331px;stroke-linecap:butt;stroke-linejoin:round;stroke-opacity:1"
             d="m 19.487611,20.746508 0.896901,-0.376723 0.130475,0.353674 -0.102689,0.355305 z"
             id="path4227"
             inkscape:connector-curvature="0"
             sodipodi:nodetypes="ccccc" />
          <path
             style="fill:none;fill-rule:evenodd;stroke:#4e4e4e;stroke-width:0.76942331px;stroke-linecap:butt;stroke-linejoin:miter;stroke-opacity:1"
             d="m 18.936224,21.090413 c 0.818374,0.807002 0.01587,-0.07639 0.392414,0.541333 0.03814,0.06257 0.104354,0.102904 0.15653,0.154355 0.02609,0.02573 0.06644,0.0425 0.07827,0.07718 0.01673,0.04904 -0.01564,0.106401 0.0011,0.155443 0.02341,0.06862 0.198656,0.160506 0.234797,0.231534 0.380565,0.748 -0.101142,-0.144246 0.08044,0.388064 0.01435,0.04206 0.33689,0.332209 0.391327,0.385889 0.130442,0.12863 0.260884,0.257259 0.391327,0.385889 0.05218,0.05145 0.09343,0.117095 0.15653,0.154356 0.07054,0.04166 0.160176,0.03997 0.233709,0.07609 0.03289,0.01616 0.05218,0.05145 0.07827,0.07718 0.07371,0.07269 0.33217,0.356827 0.391327,0.385889 0.04651,0.02285 0.106171,-0.01713 0.155443,-0.0011 0.06968,0.02268 0.08685,0.131669 0.156531,0.154356 0.04927,0.01604 0.108938,-0.02393 0.155443,-0.0011 0.09866,0.04847 0.156531,0.154355 0.234796,0.231533 0.208708,0.205808 0.417415,0.411615 0.626123,0.617423 0.05218,0.05145 0.104353,0.102903 0.156531,0.154356 0.02609,0.02573 0.04538,0.06102 0.07827,0.07718 0.434507,0.213466 0.05891,0.03184 0.388064,-0.08044 0.03468,-0.01183 0.04163,0.07743 0.07827,0.07718 0.03664,-2.56e-4 0.0425,-0.06644 0.07718,-0.07827 0.04904,-0.01672 0.103631,-7.25e-4 0.155443,-0.0011 0.05182,-3.62e-4 0.106172,-0.01713 0.155443,-0.0011 0.09348,0.03044 0.141315,0.201096 0.234797,0.231534 0.04927,0.01604 0.106171,-0.01713 0.155443,-0.0011 0.0097,0.0032 0.228021,0.218261 0.234796,0.231533 0.03715,0.07302 0.0529,0.155082 0.07935,0.232622 0.02645,0.07754 0.07878,0.150698 0.07935,0.23262 2.56e-4,0.03664 -0.05145,0.05218 -0.07718,0.07827 0.02609,0.02573 0.07801,0.04054 0.07827,0.07718 2.57e-4,0.03664 -0.08901,0.04359 -0.07718,0.07827 0.02366,0.06935 0.123304,0.08904 0.15653,0.154355 0.163993,0.322327 -0.07754,0.02645 -0.07609,0.233709 7.25e-4,0.103631 0.155806,0.05073 0.15653,0.154355 2.57e-4,0.03664 -0.07743,0.04163 -0.07718,0.07827 2.56e-4,0.03664 0.06644,0.0425 0.07827,0.07718 0.01672,0.04904 -0.01564,0.1064 0.0011,0.155443 0.01183,0.03468 0.07801,0.04054 0.07826,0.07718 2.56e-4,0.03664 -0.07743,0.04163 -0.07718,0.07826 2.57e-4,0.03664 0.05218,0.05145 0.07827,0.07718 0.05218,0.05145 0.132871,0.085 0.156531,0.154356 0.01183,0.03468 -0.07743,0.04163 -0.07718,0.07827 5.13e-4,0.07327 0.132871,0.085 0.15653,0.154356 0.181584,0.532307 -0.300124,-0.359937 0.08044,0.388063 0.03323,0.06531 0.132871,0.085 0.156531,0.154356 0.01672,0.04904 -0.0094,0.104704 0.0011,0.155443 0.02645,0.07754 0.0529,0.155082 0.07935,0.232622 0.02609,0.02573 0.06644,0.0425 0.07826,0.07718 0.01673,0.04904 -0.01564,0.106401 0.0011,0.155443 0.01435,0.04206 0.33689,0.332209 0.391327,0.38589 0.05301,0.05227 0.500485,0.516968 0.547857,0.540244 0.04651,0.02285 0.108938,-0.02394 0.155443,-0.0011 0.06577,0.03231 0.09076,0.122046 0.156531,0.154356 0.04651,0.02285 0.106172,-0.01713 0.155444,-0.0011 0.03483,0.01134 0.04342,0.06584 0.07826,0.07718 0.09854,0.03208 0.217873,-0.04787 0.310886,-0.0022 0.06577,0.03231 0.09076,0.122046 0.156531,0.154356 0.09301,0.0457 0.212346,-0.03426 0.310886,-0.0022 0.03484,0.01134 0.04538,0.06102 0.07826,0.07718 0.07353,0.03613 0.160176,0.03996 0.233709,0.07609 0.03289,0.01616 0.04163,0.07743 0.07827,0.07718 0.03664,-2.56e-4 0.04054,-0.07801 0.07718,-0.07827 0.03664,-2.56e-4 0.04343,0.06583 0.07827,0.07718 0.04927,0.01604 0.106172,-0.01713 0.155444,-0.0011 0.03483,0.01134 0.05218,0.05145 0.07826,0.07718 0.02609,0.02573 0.05218,0.05145 0.07827,0.07718 0.130442,0.128629 0.260884,0.257259 0.391327,0.385889 0.208707,0.205807 0.417415,0.411614 0.626123,0.617422 0.04092,0.04036 0.302627,0.278129 0.313061,0.308711 0.01673,0.04904 -0.02241,0.109262 0.0011,0.155444 0.06646,0.130621 0.246601,0.178091 0.313061,0.308711 0.163993,0.322327 -0.07754,0.02645 -0.07609,0.233709 2.56e-4,0.03664 0.05218,0.05145 0.07827,0.07718 0.02609,0.02573 0.05218,0.05145 0.07827,0.07718 0.05548,0.0547 0.459335,0.432994 0.469592,0.463067 0.01673,0.04904 -0.01564,0.106401 0.0011,0.155443 0.02366,0.06935 0.156017,0.08108 0.156532,0.154356 2.56e-4,0.03664 -0.07743,0.04163 -0.07718,0.07826 4.3e-5,0.0062 0.284319,0.280369 0.313061,0.308711 0.156531,0.154356 0.313062,0.308712 0.469592,0.463067 0.07827,0.07718 0.136139,0.183069 0.234797,0.231534 0.03289,0.01616 0.0425,-0.06644 0.07718,-0.07826 0.04904,-0.01673 0.106171,-0.01713 0.155443,-0.0011 0.03484,0.01134 0.04342,0.06584 0.07827,0.07718 0.356354,0.116021 -0.08196,-0.2032 0.389151,0.075 0.0631,0.03726 0.08685,0.131669 0.156531,0.154356 0.03484,0.01134 0.04054,-0.07801 0.07718,-0.07827 0.03664,-2.56e-4 0.04538,0.06102 0.07827,0.07718 0.07353,0.03613 0.163162,0.03443 0.233708,0.07609 0.09465,0.05589 0.15653,0.154355 0.234796,0.231533 0.182619,0.180082 0.365238,0.360163 0.547857,0.540245"
             id="path4229"
             inkscape:connector-curvature="0" />
        </g>
      </g>
    </g>
  </g>
</svg>
